<svg xmlns="http://www.w3.org/2000/svg" viewBox="0 0 512 512">
  <defs>
    <linearGradient id="bg" x1="0%" y1="0%" x2="100%" y2="100%">
      <stop offset="0%" stop-color="#d77e29" />
      <stop offset="100%" stop-color="#8a3614" />
    </linearGradient>
  </defs>
  <rect width="512" height="512" rx="128" fill="url(#bg)" />
  <rect x="108" y="236" width="296" height="40" rx="20" fill="#fff7ee" />
  <rect x="76" y="204" width="44" height="104" rx="18" fill="#fff7ee" />
  <rect x="392" y="204" width="44" height="104" rx="18" fill="#fff7ee" />
  <rect x="46" y="184" width="24" height="144" rx="12" fill="#f3d5c2" />
  <rect x="442" y="184" width="24" height="144" rx="12" fill="#f3d5c2" />
  <path
    d="M178 148h156c17.673 0 32 14.327 32 32v152c0 17.673-14.327 32-32 32H178c-17.673 0-32-14.327-32-32V180c0-17.673 14.327-32 32-32Z"
    fill="#241c17"
    opacity="0.12"
  />
  <path
    d="M186 140h140c22.091 0 40 17.909 40 40v152c0 22.091-17.909 40-40 40H186c-22.091 0-40-17.909-40-40V180c0-22.091 17.909-40 40-40Z"
    fill="none"
  />
</svg>
